<svg width="3000" height="1470" viewBox="0 0 3000 1470" fill="none" xmlns="http://www.w3.org/2000/svg">
<path d="M14.6297 496.321V576.307H112.182L0 866.335V936.246H170.141V859.2H71.9037L183.65 569.235V496.321H14.6297Z" fill="#FF440B"/>
<path d="M320.652 770.382C314.862 721.627 309.882 690.709 304.466 618.797H302.785C297.805 690.709 292.824 719.876 287.034 768.004L284.98 784.652H322.271L320.59 770.382H320.652ZM267.237 936.238H205.917L272.156 494.562H343.437L409.738 936.238H340.138L330.613 853.624H276.763L267.237 936.238Z" fill="#FF440B"/>
<path d="M535.398 719.505C552.393 719.505 569.077 699.665 569.077 644.964C569.077 590.263 552.393 576.306 534.961 576.306H521.266V719.505H535.398ZM637.307 936.244H567.271L532.907 793.608H521.327V936.244H452.163V496.32H536.704C592.236 496.32 631.58 537.315 631.58 643.149C631.58 684.144 624.109 734.088 595.535 762.627L637.37 936.181L637.307 936.244Z" fill="#FF440B"/>
<path d="M784.411 770.382C778.623 721.627 773.642 690.709 768.225 618.797H766.545C761.564 690.709 756.584 719.876 750.795 768.004L748.74 784.652H786.03L784.35 770.382H784.411ZM669.614 936.238L735.915 494.562H807.197L873.498 936.238H803.897L794.372 853.624H740.523L730.998 936.238H669.614Z" fill="#FF440B"/>
<path d="M1130.98 726.077C1150.47 726.077 1165.47 703.233 1165.47 649.157C1165.47 595.082 1150.41 576.369 1130.55 576.369H1118.53V726.077H1130.98ZM1048.56 496.32H1128.49C1176.99 496.32 1228.35 523.671 1228.35 647.28C1228.35 781.028 1173.25 801.807 1127.68 801.807H1118.59V936.119H1048.56V496.32Z" fill="#FF440B"/>
<path d="M1353.38 719.505C1370.38 719.505 1387.06 699.665 1387.06 644.964C1387.06 590.263 1370.38 576.306 1352.94 576.306H1339.24V719.505H1353.38ZM1455.28 936.244H1385.25L1350.88 793.608H1339.31V936.244H1270.14V496.32H1354.68C1410.22 496.32 1449.56 537.315 1449.56 643.149C1449.56 684.144 1442.09 734.088 1413.51 762.627L1455.35 936.181L1455.28 936.244Z" fill="#FF440B"/>
<path d="M1951.72 716.313C1951.72 621.807 1944.25 581.376 1920.65 581.376C1897.06 581.376 1889.15 621.807 1889.15 716.313C1889.15 810.819 1896.63 853.629 1920.65 853.629C1944.68 853.629 1951.72 810.819 1951.72 716.313ZM1817.13 716.313C1817.13 553.399 1859.77 491 1920.65 491C1981.54 491 2023.81 553.399 2023.81 716.313C2023.81 879.228 1981.17 941 1920.65 941C1860.14 941 1817.07 879.165 1817.07 716.313" fill="#FF440B"/>
<path d="M2042.87 496.32H2111.66L2123.23 624.687C2127.41 669.874 2131.08 706.737 2134.44 767.948H2136.12C2140.67 709.68 2144.4 670.437 2148.96 624.687L2161.4 496.32H2218.18L2230.62 623.56C2235.6 672.315 2240.16 711.557 2243.89 768.011H2245.56C2248.49 711.557 2252.17 671.126 2256.33 626.564L2268.35 496.383H2328.87L2275.45 937.434H2214.57L2186.8 677.697H2185.12L2157.35 937.434H2096.47L2042.87 496.32Z" fill="#FF440B"/>
<path d="M2366.61 496.32H2439.95L2478.92 648.469C2487.2 683.518 2493.43 709.116 2498.41 735.84H2500.09V496.32H2555.19V936.181H2494.68L2444.12 755.492C2435.4 722.197 2426.69 684.769 2423.39 668.121H2421.71V936.181H2366.61V496.32Z" fill="#FF440B"/>
<path d="M1497.94 496.32V936.244H1652.46V859.2H1569.22V746.606H1626.37V665.743H1569.22V576.306H1649.58V496.32H1497.94Z" fill="#FF440B"/>
<path d="M2607.75 496.32V936.244H2762.26V859.2H2678.97V746.606H2736.12V665.743H2678.97V576.306H2759.34V496.32H2607.75Z" fill="#FF440B"/>
<path d="M2886.08 858.01C2920.44 858.01 2927.92 822.085 2927.92 715.062C2927.92 608.038 2920.44 576.306 2885.64 576.306H2875.68V858.01H2886.08ZM2804.46 496.32H2877.35C2948.64 496.32 3000 528.991 3000 715.062C3000 901.133 2947.4 936.181 2877.35 936.181H2804.46V496.32Z" fill="#FF440B"/>
<path d="M1779.67 679.382H1672.15V760.244H1779.67V679.382Z" fill="#FF440B"/>
</svg>
